# Blender 3.4.1
# www.blender.org
o obj_0
v -0.195444 11.960379 -0.673557
v -0.195444 11.960592 0.733550
v 2.032489 8.364651 0.734096
v 2.032489 8.364437 -0.673011
v -2.423352 8.364437 -0.673011
v -2.423352 8.364651 0.734096
v 1.093045 8.364437 -0.673011
v 1.093045 8.364651 0.734096
v 3.205078 5.628608 0.734511
v 3.205078 5.628395 -0.672596
v -1.562081 8.364651 0.734096
v -1.562081 8.364437 -0.673011
v -3.674114 5.628395 -0.672596
v -3.674114 5.628608 0.734511
v 2.199576 5.628395 -0.672596
v 2.199576 5.628608 0.734511
v 4.846704 2.345357 0.735010
v 4.846704 2.345144 -0.672098
v -2.590452 5.628608 0.734511
v -2.590452 5.628395 -0.672596
v -5.237567 2.345144 -0.672098
v -5.237567 2.345357 0.735010
v 0.547208 2.345334 0.578664
v 0.547208 2.345167 -0.515753
v -0.859899 2.345334 0.578664
v -0.859899 2.345167 -0.515753
v 0.547208 -0.000012 -0.515397
v 0.547208 0.000154 0.579020
v -0.859899 -0.000012 -0.515397
v -0.859899 0.000154 0.579020
vn -0.0000 0.8305 -0.5570
vn -0.0000 0.8307 0.5568
vn 0.7276 -0.4050 0.5537
vn 0.7276 -0.4052 -0.5536
vn -0.7276 -0.4052 -0.5536
vn -0.7276 -0.4050 0.5537
vn 0.2242 -0.1103 -0.9683
vn 0.2242 -0.1100 0.9683
vn 0.7493 -0.3681 0.5505
vn 0.7493 -0.3683 -0.5504
vn -0.2242 -0.1100 0.9683
vn -0.2242 -0.1103 -0.9683
vn -0.7493 -0.3683 -0.5504
vn -0.7493 -0.3681 0.5505
vn 0.2200 -0.1054 -0.9698
vn 0.2200 -0.1051 0.9698
vn 0.7535 -0.3603 0.5499
vn 0.7535 -0.3605 -0.5498
vn -0.2200 -0.1051 0.9698
vn -0.2200 -0.1054 -0.9698
vn -0.7535 -0.3605 -0.5498
vn -0.7535 -0.3603 0.5499
vn 0.3015 -0.9045 0.3016
vn 0.3015 -0.9046 -0.3014
vn -0.3015 -0.9045 0.3016
vn -0.3015 -0.9046 -0.3014
vn 0.5774 -0.5774 -0.5773
vn 0.5774 -0.5773 0.5774
vn -0.5774 -0.5774 -0.5773
vn -0.5774 -0.5773 0.5774
s 1
f 1//1 2//2 3//3
f 1//1 3//3 4//4
f 1//1 5//5 6//6
f 1//1 6//6 2//2
f 7//7 8//8 9//9
f 7//7 9//9 10//10
f 11//11 12//12 13//13
f 11//11 13//13 14//14
f 4//4 3//3 8//8
f 4//4 8//8 7//7
f 12//12 11//11 6//6
f 12//12 6//6 5//5
f 15//15 16//16 17//17
f 15//15 17//17 18//18
f 19//19 20//20 21//21
f 19//19 21//21 22//22
f 10//10 9//9 16//16
f 10//10 16//16 15//15
f 20//20 19//19 14//14
f 20//20 14//14 13//13
f 23//23 24//24 17//17
f 18//18 17//17 24//24
f 25//25 22//22 26//26
f 21//21 26//26 22//22
f 25//25 23//23 17//17
f 25//25 17//17 22//22
f 21//21 18//18 26//26
f 24//24 26//26 18//18
f 15//15 18//18 21//21
f 15//15 21//21 20//20
f 7//7 10//10 15//15
f 7//7 15//15 20//20
f 13//13 12//12 20//20
f 7//7 20//20 12//12
f 4//4 7//7 1//1
f 7//7 12//12 1//1
f 5//5 1//1 12//12
f 17//17 16//16 22//22
f 19//19 22//22 16//16
f 11//11 14//14 19//19
f 16//16 8//8 19//19
f 9//9 8//8 16//16
f 11//11 19//19 8//8
f 2//2 6//6 11//11
f 2//2 11//11 8//8
f 2//2 8//8 3//3
f 27//27 24//24 23//23
f 27//27 23//23 28//28
f 26//26 29//29 30//30
f 26//26 30//30 25//25
f 28//28 30//30 29//29
f 28//28 29//29 27//27
f 25//25 30//30 28//28
f 25//25 28//28 23//23
f 24//24 27//27 29//29
f 24//24 29//29 26//26
