# Blender 3.4.1
# www.blender.org
o obj_0.001
v -0.139731 5.374267 -0.150407
v -0.139731 -0.000020 -0.149645
v -0.139731 0.000019 0.124444
v -0.139731 5.374306 0.123681
v 0.134357 5.374306 0.123681
v 0.134357 0.000019 0.124444
v 0.134357 -0.000020 -0.149645
v 0.134357 5.374267 -0.150407
vn -1.0000 -0.0000 -0.0000
vn 1.0000 -0.0000 -0.0000
vn -0.0000 -0.0001 -1.0000
vn -0.0000 -1.0000 0.0001
vn -0.0000 0.0001 1.0000
vn -0.0000 1.0000 -0.0001
s 0
f 1//1 2//1 3//1
f 1//1 3//1 4//1
f 5//2 6//2 7//2
f 5//2 7//2 8//2
f 8//3 7//3 2//3
f 8//3 2//3 1//3
f 6//4 3//4 2//4
f 6//4 2//4 7//4
f 4//5 3//5 6//5
f 4//5 6//5 5//5
f 8//6 1//6 4//6
f 8//6 4//6 5//6
